<?xml version="1.0" encoding="utf-8"?>
<svg viewBox="7.373 55.552 523.258 114.853" xmlns="http://www.w3.org/2000/svg">
  <path d="M20.15 0L10.65 0Q7.35 0 5.58-0.95 3.8-1.9 3.15-3.58 2.5-5.25 2.5-7.45L2.5-7.45 2.5-15Q2.5-17 3.18-18.68 3.85-20.35 5.6-21.38 7.35-22.4 10.65-22.4L10.65-22.4 17.05-22.4Q22.8-22.4 25.5-21.9 28.2-21.4 28.55-20.9L28.55-20.9 27.05-15.6Q26-15.7 23.25-15.9 20.5-16.1 17.2-16.1L17.2-16.1 14.15-16.1Q12.85-16.1 12.3-15.6 11.75-15.1 11.75-14.1L11.75-14.1 11.75-8.3Q11.75-7.3 12.25-6.8 12.75-6.3 14.15-6.3L14.15-6.3 16.7-6.3Q20.4-6.3 23.08-6.48 25.75-6.65 27-6.8L27-6.8 30-2.05Q30-1.35 27.53-0.68 25.05 0 20.15 0L20.15 0ZM42.45 0L40.95 0Q36.55 0 34.65-1.65 32.75-3.3 32.75-7.15L32.75-7.15Q32.75-10.7 34.72-12.3 36.7-13.9 40.95-13.9L40.95-13.9 42.5-13.9Q45.3-13.9 47.85-13.7 50.4-13.5 52.25-13.3L52.25-13.3 52.25-14.1Q52.25-14.8 51.95-15.45 51.65-16.1 49.85-16.1L49.85-16.1 47.35-16.1Q41.9-16.1 38.95-15.93 36-15.75 35.3-15.6L35.3-15.6 34.75-20.9Q34.75-21.4 36.5-21.73 38.25-22.05 41.3-22.23 44.35-22.4 48.25-22.4L48.25-22.4 53.25-22.4Q56.55-22.4 58.3-21.43 60.05-20.45 60.7-18.8 61.35-17.15 61.35-15L61.35-15 61.35 0 54.25 0 52.3-1Q51.1-0.75 48.47-0.38 45.85 0 42.45 0L42.45 0ZM43.85-5.9L43.85-5.9 50.75-5.9Q51.85-5.9 52.05-6.1 52.25-6.3 52.25-7.35L52.25-7.35 52.25-9.1 43.85-9.1Q42.9-9.1 42.45-8.75 42-8.4 42-7.4L42-7.4Q42-6.45 42.45-6.18 42.9-5.9 43.85-5.9ZM76.69 0L67.59 0 67.59-27.7 67.09-31.7 76.69-31.7 76.69 0ZM100.99 0L90.34 0Q87.04 0 85.27-0.95 83.49-1.9 82.84-3.58 82.19-5.25 82.19-7.45L82.19-7.45 82.19-15Q82.19-17 82.87-18.68 83.54-20.35 85.29-21.38 87.04-22.4 90.34-22.4L90.34-22.4 100.69-22.4Q104.59-22.4 106.67-21.48 108.74-20.55 109.52-18.88 110.29-17.2 110.29-15L110.29-15 110.29-8.6 101.54-8.6Q97.04-8.6 94.72-8.8 92.39-9 91.44-9.05L91.44-9.05 91.44-8.3Q91.39-6.3 93.84-6.3L93.84-6.3 95.39-6.3Q99.39-6.3 102.79-6.48 106.19-6.65 107.84-6.8L107.84-6.8 110.84-2.05Q110.84-1.55 109.99-1.1 109.14-0.65 107.02-0.33 104.89 0 100.99 0L100.99 0ZM91.44-14.1L91.44-13.4 101.04-13.4 101.04-14.1Q101.04-15.1 100.87-15.5 100.69-15.9 99.79-16 98.89-16.1 96.74-16.1L96.74-16.1 93.84-16.1Q91.44-16.1 91.44-14.1L91.44-14.1ZM125.09 0L115.84 0 115.84-22.4 123.09-22.4 125.09-21.4Q127.19-21.8 130.16-22.1 133.14-22.4 135.74-22.4L135.74-22.4 138.24-22.4Q140.74-22.4 142.09-21.7 143.44-21 144.02-19.95 144.59-18.9 144.72-17.82 144.84-16.75 144.84-16L144.84-16 144.84 0 135.69 0 135.69-14.1Q135.69-16.1 133.29-16.1L133.29-16.1 126.59-16.1Q125.64-16.1 125.37-15.93 125.09-15.75 125.09-15L125.09-15 125.09 0ZM159.19 0L157.69 0Q154.39 0 152.76-0.98 151.14-1.95 150.61-3.63 150.09-5.3 150.09-7.45L150.09-7.45 150.09-15Q150.09-16.9 150.61-18.57 151.14-20.25 152.76-21.33 154.39-22.4 157.69-22.4L157.69-22.4 159.24-22.4Q162.89-22.4 165.86-22.2 168.84-22 169.94-21.85L169.94-21.85 169.94-31.7 179.19-31.7 179.19 0 171.94 0 169.99-1Q167.89-0.65 165.46-0.33 163.04 0 159.19 0L159.19 0ZM161.74-6.3L161.74-6.3 168.39-6.3Q169.44-6.3 169.69-6.55 169.94-6.8 169.94-7.8L169.94-7.8 169.94-15.75Q168.69-15.85 166.99-15.98 165.29-16.1 163.24-16.1L163.24-16.1 161.74-16.1Q159.34-16.1 159.34-14.1L159.34-14.1 159.34-8.3Q159.34-7.3 159.89-6.8 160.44-6.3 161.74-6.3ZM194.13 0L192.63 0Q188.24 0 186.34-1.65 184.44-3.3 184.44-7.15L184.44-7.15Q184.44-10.7 186.41-12.3 188.38-13.9 192.63-13.9L192.63-13.9 194.19-13.9Q196.99-13.9 199.53-13.7 202.09-13.5 203.94-13.3L203.94-13.3 203.94-14.1Q203.94-14.8 203.63-15.45 203.34-16.1 201.53-16.1L201.53-16.1 199.03-16.1Q193.59-16.1 190.63-15.93 187.69-15.75 186.99-15.6L186.99-15.6 186.44-20.9Q186.44-21.4 188.19-21.73 189.94-22.05 192.99-22.23 196.03-22.4 199.94-22.4L199.94-22.4 204.94-22.4Q208.24-22.4 209.99-21.43 211.74-20.45 212.38-18.8 213.03-17.15 213.03-15L213.03-15 213.03 0 205.94 0 203.99-1Q202.78-0.75 200.16-0.38 197.53 0 194.13 0L194.13 0ZM195.53-5.9L195.53-5.9 202.44-5.9Q203.53-5.9 203.74-6.1 203.94-6.3 203.94-7.35L203.94-7.35 203.94-9.1 195.53-9.1Q194.59-9.1 194.13-8.75 193.69-8.4 193.69-7.4L193.69-7.4Q193.69-6.45 194.13-6.18 194.59-5.9 195.53-5.9ZM227.88 0L218.78 0 218.78-22.4 225.88-22.4 227.78-21.4Q230.08-22.9 233.88-22.9L233.88-22.9Q236.38-22.9 238.28-22.38 240.18-21.85 241.36-21.25 242.53-20.65 242.83-20.4L242.83-20.4 240.33-13.9Q239.83-14.25 238.46-14.85 237.08-15.45 235.23-15.98 233.38-16.5 231.33-16.5L231.33-16.5 230.78-16.5Q229.38-16.5 228.63-16.03 227.88-15.55 227.88-13.95L227.88-13.95 227.88 0Z" opacity="1" transform="matrix(2.177208, 0, 0, 2.177208, 1.929952, 124.569784)" fill="#ffffff" class="undefined-text-0" data-fill-palette-color="primary" id="text-0"/>
  <path d="M17.85-10.95L17.85-10.95 11.9-10.95 9.95 0 0.95 0 7.3-36 22.55-36Q28.2-36 30.6-33.4L30.6-33.4Q32.35-31.4 32.35-28.3L32.35-28.3Q32.35-27.25 32.15-26.1L32.15-26.1 31.15-20.45Q30.4-16.3 26.75-13.63 23.1-10.95 17.85-10.95ZM19.4-28.2L19.4-28.2 14.9-28.2 13.25-18.75 17.7-18.75Q21.8-18.75 22.45-22.4L22.45-22.4 22.8-24.45Q22.9-24.9 22.9-25.65 22.9-26.4 22.15-27.3 21.4-28.2 19.4-28.2ZM57.05-7.8L55.65 0 32.85 0 39.2-36 48.2-36 43.25-7.8 57.05-7.8ZM86.95 0L77.45 0 77.75-7.85 69.4-7.85 66.95 0 57.4 0 70.25-36 86.75-36 86.95 0ZM78.55-27.25L75.4-27.25 71.45-14.55 78-14.55 78.55-27.25ZM116.79-36L125.79-36 119.49 0 110.44 0 104.14-19.7 100.74 0 91.69 0 98.04-36 107.34-36 113.54-17.6 116.79-36ZM154.79-23.35L155.94-23.35 164.39-36 173.39-36 157.99-13.85 155.54 0 146.49 0 148.94-13.85 141.34-36 150.89-36 154.79-23.35ZM188.69-36.35L188.69-36.35Q200.74-36.35 200.74-26.5L200.74-26.5Q200.74-24.85 200.39-22.95L200.39-22.95 198.64-12.95Q197.44-6 193.44-2.65 189.44 0.7 182.19 0.7 174.94 0.7 172.09-2.65L172.09-2.65Q170.14-4.95 170.14-9L170.14-9Q170.14-10.8 170.54-12.95L170.54-12.95 172.29-22.95Q174.64-36.35 188.69-36.35ZM183.54-7.05L183.54-7.05Q186.04-7.05 187.54-8.35 189.04-9.65 189.64-13.15L189.64-13.15 191.34-22.75Q191.49-23.75 191.49-24.55L191.49-24.55Q191.49-28.6 187.39-28.6L187.39-28.6Q182.24-28.5 181.24-22.75L181.24-22.75 179.54-13.15Q179.34-11.9 179.34-10.55L179.34-10.55Q179.34-7.05 183.54-7.05ZM227.26-2.63Q223.28 0.7 216.03 0.7 208.78 0.7 205.98-2.65L205.98-2.65Q203.98-4.95 203.98-9L203.98-9Q203.98-10.8 204.38-12.95L204.38-12.95 208.43-36 217.43-36 213.38-13.15Q213.18-11.9 213.18-10.55L213.18-10.55Q213.18-7.05 217.38-7.05L217.38-7.05Q219.88-7.05 221.38-8.35 222.88-9.65 223.48-13.15L223.48-13.15 227.53-36 236.53-36 232.48-12.95Q231.23-5.95 227.26-2.63ZM243.33-36L257.83-36Q263.53-36 265.93-33.5L265.93-33.5Q267.73-31.6 267.73-28.7L267.73-28.7Q267.73-27.7 267.53-26.6L267.53-26.6 266.83-22.7Q266.23-19.45 264.76-17.45 263.28-15.45 261.48-14.6L261.48-14.6 266.03 0 255.93 0 251.73-13.45 248.63-13.45 246.58 0 236.98 0 243.33-36ZM254.68-28.2L254.68-28.2 250.93-28.2 249.63-19.5 253.13-19.5Q255.78-19.5 256.93-20.78 258.08-22.05 258.08-24.15L258.08-24.15Q258.08-28.2 254.68-28.2ZM305.98-7.8L304.58 0 281.78 0 288.13-36 297.13-36 292.18-7.8 305.98-7.8ZM314.92-36L323.92-36 317.62 0 308.57 0 314.92-36ZM350.67-21L349.32-13.2 336.02-13.2 333.72 0 324.67 0 331.02-36 356.12-36 354.72-28.2 338.62-28.2 337.37-21 350.67-21ZM381.27-7.8L379.87 0 354.77 0 361.12-36 386.22-36 384.82-28.2 368.72-28.2 367.57-21.45 380.87-21.45 379.47-13.65 366.17-13.65 365.17-7.8 381.27-7.8Z" opacity="1" transform="matrix(0.797365, 0, 0, 0.797365, 222.67292, 169.847375)" fill="#00d1cd" class="undefined-text-1" data-fill-palette-color="secondary" id="text-1"/>
</svg>