<?xml version="1.0" encoding="utf-8"?>
<svg viewBox="571.718 22.463 226.753 228.103" xmlns="http://www.w3.org/2000/svg">
  <rect x="18.75" y="37.5" width="12.5" height="12.5" fill="#00d1cd" data-fill-palette-color="accent" transform="matrix(2.267531, -0.017995, 0, 2.267531, 571.718378, 23.812597)"/>
  <rect x="43.75" y="62.5" width="12.5" height="12.5" fill="#00d1cd" data-fill-palette-color="accent" transform="matrix(2.267531, -0.017995, 0, 2.267531, 571.718378, 23.812597)"/>
  <rect x="68.75" y="37.5" width="12.5" height="12.5" fill="#00d1cd" data-fill-palette-color="accent" transform="matrix(2.267531, -0.017995, 0, 2.267531, 571.718378, 23.812597)"/>
  <path d="M25 18.75V6.25C25 2.795 27.795 0 31.25 0s6.25 2.795 6.25 6.25v12.5c0 3.455-2.795 6.25-6.25 6.25S25 22.205 25 18.75z" fill="#00d1cd" data-fill-palette-color="accent" transform="matrix(2.267531, -0.017995, 0, 2.267531, 571.718378, 23.812597)"/>
  <polygon points="100,100 0,100 0,12.5 12.5,12.5 12.5,87.5 87.5,87.5 87.5,12.5 100,12.5 100,100 " fill="#00d1cd" data-fill-palette-color="accent" transform="matrix(2.267531, -0.017995, 0, 2.267531, 571.718378, 23.812597)"/>
  <rect x="43.75" y="37.524" width="12.5" height="12.5" fill="#00d1cd" data-fill-palette-color="accent" transform="matrix(2.267531, -0.017995, 0, 2.267531, 571.718378, 23.812597)"/>
  <rect x="18.75" y="62.5" width="12.5" height="12.5" fill="#00d1cd" data-fill-palette-color="accent" transform="matrix(2.267531, -0.017995, 0, 2.267531, 571.718378, 23.812597)"/>
  <polygon points="68.75,75 68.75,62.5 81.25,62.5 " fill="#00d1cd" data-fill-palette-color="accent" transform="matrix(2.267531, -0.017995, 0, 2.267531, 571.718378, 23.812597)"/>
  <path d="M62.5 18.75V6.25C62.5 2.795 65.295 0 68.75 0S75 2.795 75 6.25v12.5c0 3.455-2.795 6.25-6.25 6.25S62.5 22.205 62.5 18.75z" fill="#00d1cd" data-fill-palette-color="accent" transform="matrix(2.267531, -0.017995, 0, 2.267531, 571.718378, 23.812597)"/>
</svg>